<svg class="icon" style="width: 1em;height: 1em;vertical-align: middle;fill: currentColor;overflow: hidden;" viewBox="0 0 1024 1024" version="1.1" xmlns="http://www.w3.org/2000/svg" p-id="1182"><path d="M640.469333 85.333333a64 64 0 0 1 58.816 38.784L728.384 192H832a128 128 0 0 1 128 128v490.666667a128 128 0 0 1-128 128H192a128 128 0 0 1-128-128V320a128 128 0 0 1 128-128h103.616l29.098667-67.882667A64 64 0 0 1 383.530667 85.333333h256.938666z m0 64H383.530667l-45.717334 106.666667H192a64 64 0 0 0-63.893333 60.245333L128 320v490.666667a64 64 0 0 0 60.245333 63.893333L192 874.666667h640a64 64 0 0 0 63.893333-60.245334L896 810.666667V320a64 64 0 0 0-60.245333-63.893333L832 256h-145.813333l-45.717334-106.666667zM512 341.333333c117.824 0 213.333333 95.509333 213.333333 213.333334s-95.509333 213.333333-213.333333 213.333333-213.333333-95.509333-213.333333-213.333333 95.509333-213.333333 213.333333-213.333334z m0 64a149.333333 149.333333 0 1 0 0 298.666667 149.333333 149.333333 0 0 0 0-298.666667z m288-85.333333a32 32 0 1 1 0 64 32 32 0 0 1 0-64z" fill="currentColor" p-id="1183"></path></svg>
