<svg class="icon" style="width: 1em;height: 1em;vertical-align: middle;fill: currentColor;overflow: hidden;" viewBox="0 0 1024 1024" version="1.1" xmlns="http://www.w3.org/2000/svg" p-id="1493"><path d="M983.1 496c-21.9 0.5-39.1 18.8-39.1 40.7V904c0 22.1-17.9 40-40 40H614c-22.1 0-40 17.9-40 40s17.9 40 40 40h370c22.1 0 40-17.9 40-40V536c0-22.4-18.4-40.5-40.9-40zM40 600c22.1 0 40-17.9 40-40V120c0-22.1 17.9-40 40-40h367.3c21.9 0 40.3-17.3 40.7-39.1 0.5-22.5-17.6-40.9-40-40.9H40C17.9 0 0 17.9 0 40v520c0 22.1 17.9 40 40 40zM535 697.2zM442.5 484.1c-16.2 21.6-27.1 38.4 50.6 116 65.6 65.6 96.1 61.3 129.3 33 55.3-55.3 290.7-383.5 377.7-508.7 14.3-20.6 43.5-79 4.3-105.7-36.7-24.9-69.6-2.6-83.8 5.6C878 52.7 574.4 347.8 442.5 484.1zM399.7 568.1c-20.4-19.8-48.4-24.2-62.5-9.7-14.1 14.5-8.9 42.3 11.6 62.1l135.3 129.1c20.4 19.8 48.4 24.2 62.5 9.7 14.1-14.5 8.9-42.3-11.6-62.1L399.7 568.1zM288.4 620.5s-132.7 72.1-137.8 185c-5.1 112.9-112.9 195.1-148.9 205.3C-34.2 1021.1 527 1044.3 486 803L288.4 620.5z" p-id="1494"></path></svg>
